<?xml version="1.0" encoding="utf-8"?>
<!-- Generator: Adobe Illustrator 19.2.1, SVG Export Plug-In . SVG Version: 6.00 Build 0)  -->
<svg version="1.1" id="conr-icon" xmlns="http://www.w3.org/2000/svg" xmlns:xlink="http://www.w3.org/1999/xlink" x="0px" y="0px"
	 viewBox="0 0 68.7 98.8" style="enable-background:new 0 0 68.7 98.8;" xml:space="preserve">
<style type="text/css">
	.st0{fill:url(#SVGID_1_);stroke:#000000;stroke-miterlimit:10;}
	.st1{fill:url(#SVGID_2_);stroke:#000000;stroke-miterlimit:10;}
	.st2{fill:url(#SVGID_3_);stroke:#000000;stroke-miterlimit:10;}
</style>
<g>
	<linearGradient id="SVGID_1_" gradientUnits="userSpaceOnUse" x1="41.5836" y1="98.0631" x2="41.5839" y2="98.0631">
		<stop  offset="0" style="stop-color:#CCE0F4"/>
		<stop  offset="6.405089e-002" style="stop-color:#C3DCF2"/>
		<stop  offset="0.1706" style="stop-color:#A9D2EE"/>
		<stop  offset="0.3066" style="stop-color:#80C2E7"/>
		<stop  offset="0.4649" style="stop-color:#47ACDE"/>
		<stop  offset="0.5674" style="stop-color:#1E9CD7"/>
		<stop  offset="0.8652" style="stop-color:#0075BE"/>
		<stop  offset="0.9944" style="stop-color:#005B97"/>
	</linearGradient>
	<polygon class="st0" points="41.6,98.1 41.6,98.1 41.6,98.1 	"/>
	<linearGradient id="SVGID_2_" gradientUnits="userSpaceOnUse" x1="0.6039" y1="49.4463" x2="68.1483" y2="49.4463">
		<stop  offset="0" style="stop-color:#CCE0F4"/>
		<stop  offset="6.405089e-002" style="stop-color:#C3DCF2"/>
		<stop  offset="0.1706" style="stop-color:#A9D2EE"/>
		<stop  offset="0.3066" style="stop-color:#80C2E7"/>
		<stop  offset="0.4649" style="stop-color:#47ACDE"/>
		<stop  offset="0.5674" style="stop-color:#1E9CD7"/>
		<stop  offset="0.8652" style="stop-color:#0075BE"/>
		<stop  offset="0.9944" style="stop-color:#005B97"/>
	</linearGradient>
	<path class="st1" d="M34.4,0.6c-56.5,0-26.1,91-21.5,94.8c2.9,2.4,17.3,3.3,28.7,2.7c-4.7,0.2-9.8,0.2-14.5,0
		c-0.1-0.1-0.2-0.1-0.3-0.2c-2.1-1.7,0-48.4,7.6-48.4s9.4,46.9,7.5,48.4c-0.1,0.1-0.2,0.1-0.3,0.2c6.8-0.4,12.6-1.2,14.3-2.7
		C60.5,91.6,90.9,0.6,34.4,0.6z"/>
	<linearGradient id="SVGID_3_" gradientUnits="userSpaceOnUse" x1="26.0663" y1="73.8467" x2="42.554" y2="73.8467">
		<stop  offset="0" style="stop-color:#C2A66C"/>
		<stop  offset="0.5724" style="stop-color:#F2D08A"/>
		<stop  offset="0.7554" style="stop-color:#EECE89"/>
		<stop  offset="0.8652" style="stop-color:#E8CA87"/>
		<stop  offset="0.9944" style="stop-color:#E8CDB6"/>
	</linearGradient>
	<path class="st2" d="M34.4,49.4c-7.5,0-9.6,46.7-7.6,48.4c0.1,0.1,0.2,0.1,0.3,0.2c4.7,0.2,9.8,0.3,14.5,0c0,0,0,0,0,0
		c0.1-0.1,0.2-0.1,0.3-0.2C43.8,96.3,41.9,49.4,34.4,49.4z"/>
</g>
</svg>
